PathFileType	4	(X/Y/Z)	/Users/niels/Desktop/University/Third Semester/Perception and Action/Exam/Gymnastics Motion Tracking/Code for Gym Tracking/Scripts/Analyzed Data/kraft_bad_id1_1_normal_speed_Sports2D/kraft_bad_id1_1_normal_speed_Sports2D_px_person00.trc
DataRate	CameraRate	NumFrames	NumMarkers	Units	OrigDataRate	OrigDataStartFrame	OrigNumFrames
49.404761904761905	49.404761904761905	9	22	m	49.404761904761905	28	84
Frame#	Time	Hip			RHip			RKnee			RAnkle			RBigToe			RSmallToe			RHeel			LHip			LKnee			LAnkle			LBigToe			LSmallToe			LHeel			Neck			Head			Nose			RShoulder			RElbow			RWrist			LShoulder			LElbow			LWrist		
		X1	Y1	Z1	X2	Y2	Z2	X3	Y3	Z3	X4	Y4	Z4	X5	Y5	Z5	X6	Y6	Z6	X7	Y7	Z7	X8	Y8	Z8	X9	Y9	Z9	X10	Y10	Z10	X11	Y11	Z11	X12	Y12	Z12	X13	Y13	Z13	X14	Y14	Z14	X15	Y15	Z15	X16	Y16	Z16	X17	Y17	Z17	X18	Y18	Z18	X19	Y19	Z19	X20	Y20	Z20	X21	Y21	Z21	X22	Y22	Z22
28	0.5667469879518072	0.5179455809099056	-0.5614881158108954	0.0	0.5299561777548285	-0.5703955669181278	0.0	0.6078185735003054	-0.6697734437307071	0.0	0.5513319554137087	-0.7957980619773964	0.0	0.5911001005365827	-0.8254791418720749	0.0	0.6218625354938968	-0.8284160832707129	0.0	0.537118568772302	-0.8119047159856755	0.0	0.503579522124099	-0.5619094787701395	0.0	0.416037199100487	-0.6832908143318931	0.0	0.2633880178927596	-0.7540838576268087	0.0	0.25427279875570546	-0.8053111435700216	0.0	0.2471416508915213	-0.7989282902020074	0.0	0.23288686155077568	-0.7621615260662142	0.0	0.7227946910718467	-0.5277321195934734	0.0	0.81262965088662	-0.5018015718722959	0.0	0.7840516254292095	-0.5420764074411265	0.0	0.7179219074374041	-0.5341787638568224	0.0	0.7934568920116968	-0.5965182062131229	0.0	0.8775649681869053	-0.6491799956065565	0.0	0.703191473633103	-0.5129132685399275	0.0	0.7272855006657151	-0.5676122249503471	0.0	0.7832893904973449	-0.6321105063842938	0.0
29	0.5869879518072288	0.5519065920876804	-0.5526103720274923	0.0	0.5622298610095487	-0.5615735096970561	0.0	0.6158695784407985	-0.6661781274078576	0.0	0.5417219088919724	-0.7832904913896785	0.0	0.5743678101576589	-0.8186129199026463	0.0	0.619371607310732	-0.8191080340244137	0.0	0.5254367356270393	-0.7971389333122835	0.0	0.5375045185064116	-0.5518712496928782	0.0	0.4425642377371866	-0.6633252409633866	0.0	0.2939232623947163	-0.7260647657745007	0.0	0.27964760591138393	-0.7753688586418601	0.0	0.2735072234377035	-0.769658233609627	0.0	0.26400345059555935	-0.7338682774434122	0.0	0.7571746841985902	-0.537020933488315	0.0	0.8494834519192267	-0.5195014422110906	0.0	0.8169324430804049	-0.5568505898905661	0.0	0.7514726527067087	-0.5428760717489993	0.0	0.8226578834384874	-0.6089088278280491	0.0	0.9043767798048383	-0.6671428320128476	0.0	0.7405116505225319	-0.5217692812926062	0.0	0.7729571296674116	-0.5794731942641896	0.0	0.8352432233150631	-0.6491829909776996	0.0
30	0.6072289156626506	0.586343723838365	-0.5428794626954933	0.0	0.5945996787104438	-0.5517120071023692	0.0	0.6215942926507104	-0.6610298510825077	0.0	0.5313748163599958	-0.7686365562814156	0.0	0.5564159155452207	-0.8091050190558956	0.0	0.6160302677962706	-0.807005305328997	0.0	0.5133040994657175	-0.779899107633761	0.0	0.5726979189962494	-0.5409091747939625	0.0	0.47284399574945857	-0.6411638395825836	0.0	0.3297723909337283	-0.6923935932128675	0.0	0.31049937412718964	-0.7385962774840502	0.0	0.3056625198779962	-0.7333641964036602	0.0	0.3007195723688645	-0.699471589093996	0.0	0.7903844679566635	-0.5458024531716474	0.0	0.8850844013735598	-0.536532466013733	0.0	0.8488698643594126	-0.5709451976638115	0.0	0.783673235863346	-0.551471928095244	0.0	0.8503608520443103	-0.6223467840120559	0.0	0.9296734272734977	-0.6854982070526651	0.0	0.7770631345163125	-0.5305069775393182	0.0	0.8157319123473634	-0.5917549444694614	0.0	0.8818559096817655	-0.6669850534282068	0.0
31	0.6274698795180722	0.6210862434604413	-0.5327845340004533	0.0	0.6271123306042502	-0.5414126741242518	0.0	0.6267179566800023	-0.6549730223483718	0.0	0.5225071465223018	-0.7533675967349717	0.0	0.5398403205418254	-0.7982831287859549	0.0	0.611986659922035	-0.7936691509640588	0.0	0.5029907032224518	-0.7619154154873631	0.0	0.6087248318563021	-0.5295426817216542	0.0	0.5055932911774088	-0.6165685987739754	0.0	0.3699308251664697	-0.6522812542338278	0.0	0.3458275833348679	-0.6939555869668161	0.0	0.34249100835908564	-0.688965756205865	0.0	0.34214685386764193	-0.6580438345207967	0.0	0.8223989167668522	-0.5540610109938875	0.0	0.9191850484318967	-0.5525187128409426	0.0	0.8797175647209369	-0.5841165197765236	0.0	0.814690143577336	-0.5599546509125685	0.0	0.8770442113311193	-0.6368038269177091	0.0	0.9538354719162899	-0.7038138556969887	0.0	0.8124174323825902	-0.5391857855000077	0.0	0.8548442887128116	-0.6050716152424073	0.0	0.9226399067434038	-0.6850469388817256	0.0
32	0.6477108433734939	0.6559715003717098	-0.5227868464780167	0.0	0.6598646494446022	-0.531328376398068	0.0	0.6336086555978173	-0.6491649206784635	0.0	0.5180598451520457	-0.7397001774998136	0.0	0.5280981591598384	-0.7881663113093731	0.0	0.6074341706483193	-0.781531145767969	0.0	0.49742031415303806	-0.7456684403963599	0.0	0.6450633214161672	-0.5181793583040618	0.0	0.5388792301916199	-0.5888407960528724	0.0	0.41257677593267905	-0.6045991281515792	0.0	0.3837447644524673	-0.6401775746905045	0.0	0.3818922529694948	-0.6351629250655788	0.0	0.3865538298970627	-0.6082880250962538	0.0	0.8532118454834404	-0.5618792367391465	0.0	0.9515115233421975	-0.5673675160566399	0.0	0.9092631797397738	-0.5963216489566727	0.0	0.8446998032641719	-0.5683195943027615	0.0	0.9028741268428734	-0.6519459935124102	0.0	0.9768781806665499	-0.7216774726288518	0.0	0.8462208359144727	-0.5477766158319306	0.0	0.8898202606228933	-0.6195375066274528	0.0	0.9575183218093265	-0.7026806295152928	0.0
33	0.6679518072289157	0.690922006085418	-0.5132493261734341	0.0	0.6930027175876576	-0.5219862458464695	0.0	0.6444095037742077	-0.6446184966190773	0.0	0.5205668176476426	-0.7292147948830368	0.0	0.5240682074829642	-0.7801967800489067	0.0	0.6026797778203236	-0.7724277465060535	0.0	0.49905997958051984	-0.7329623851572291	0.0	0.6813566175803124	-0.5071493084660671	0.0	0.5710496604975401	-0.5575180501395821	0.0	0.4560742869325109	-0.5489678510419974	0.0	0.42261325485983064	-0.5769655683436382	0.0	0.4220223065707769	-0.5716683270505373	0.0	0.43232351010151543	-0.5497502139489383	0.0	0.8828917029477191	-0.5694531712760758	0.0	0.9818809299591519	-0.5813300816497652	0.0	0.9373120295465092	-0.6077523957471046	0.0	0.8738494686441185	-0.5766006986572304	0.0	0.927537910023191	-0.6671881106069297	0.0	0.998322152820212	-0.7387382671413976	0.0	0.878337387336035	-0.55621920535591	0.0	0.9204810076044069	-0.6346013074363692	0.0	0.9866169557498308	-0.7192045863384777	0.0
34	0.6881927710843373	0.7259095148674607	-0.5044261104105504	0.0	0.7266170193574178	-0.5136359019652178	0.0	0.6598666518508508	-0.6412913180520593	0.0	0.5305800213919604	-0.7210374271376626	0.0	0.528155282479955	-0.7734697110613077	0.0	0.598267151138115	-0.7655186974390594	0.0	0.5084251416340555	-0.7229638700410246	0.0	0.7175150043056194	-0.4968125340449727	0.0	0.6018445735713677	-0.5234019877914503	0.0	0.5003342902239296	-0.48753210254661633	0.0	0.4625939335444078	-0.5067955059172677	0.0	0.46299326105209193	-0.5010521985012807	0.0	0.4792980873228316	-0.4848203940196837	0.0	0.9114958680355	-0.5770151978362743	0.0	1.0102198403179043	-0.5948807674653747	0.0	0.9637052009658196	-0.618725164730733	0.0	0.9021399595393316	-0.5848412609960869	0.0	0.9503988416156509	-0.6818759346388129	0.0	1.017523252352406	-0.7547007863785459	0.0	0.9087549211463294	-0.5645563661673623	0.0	0.9468910392428043	-0.649456743833834	0.0	1.0102327800607174	-0.7341212569439455	0.0
35	0.708433734939759	0.760892277261255	-0.4965246132137586	0.0	0.7606917629325006	-0.5062977739866737	0.0	0.6792502733784166	-0.6380732584678455	0.0	0.5466794139299528	-0.7119047531517779	0.0	0.5383910484049217	-0.7647863933174157	0.0	0.5950360764286171	-0.7573001339447578	0.0	0.5241335224935567	-0.7122710717470304	0.0	0.7536066208095638	-0.4875900911983438	0.0	0.6323333353989706	-0.4886001744148445	0.0	0.5466954611421779	-0.424912104472617	0.0	0.5054699027891844	-0.43476944127841977	0.0	0.5067116065824738	-0.4285937142754206	0.0	0.5286800435526088	-0.41867715011863754	0.0	0.9389650534562408	-0.5847742647938686	0.0	1.0365029388666038	-0.6085259612390055	0.0	0.9882900714910682	-0.6295608172753944	0.0	0.9293977300374453	-0.5930843468778609	0.0	0.9708002312310893	-0.6954053531131187	0.0	1.03400239844891	-0.7693081030160491	0.0	0.9374194568695876	-0.5729811542958931	0.0	0.9692520348663335	-0.6634417592398031	0.0	1.028815300245063	-0.7471393115573263	0.0
36	0.7286746987951807	0.7958725012806086	-0.4897464511600181	0.0	0.7952124250995729	-0.499926810037898	0.0	0.7013839649983903	-0.633621160345273	0.0	0.5671061177500298	-0.6981120840274034	0.0	0.5524562560788453	-0.7504970901532224	0.0	0.5940765659657233	-0.7437016185719021	0.0	0.5445054969507437	-0.6970090152151418	0.0	0.7897594372855014	-0.47986447844675983	0.0	0.6638627327587971	-0.45543508955959106	0.0	0.5965110299139216	-0.366022085347239	0.0	0.5529769789142897	-0.36629258671670006	0.0	0.555081843577907	-0.359917801569679	0.0	0.5816620540391514	-0.3568064145854677	0.0	0.9651889364727013	-0.5929342843253939	0.0	1.0607681287459756	-0.6226695173375011	0.0	1.0109702709120385	-0.6405374474107559	0.0	0.9554413421296893	-0.6014305385077784	0.0	0.9883302324685455	-0.707311395075969	0.0	1.0475051054728726	-0.7823504832355462	0.0	0.9642662432784781	-0.5817713732740704	0.0	0.9878481706537041	-0.6761518182256899	0.0	1.0429004440634324	-0.7581547089359412	0.0
